HIERARCHY
ROOT Hips
{
	OFFSET 0.00 0.00 0.00
	CHANNELS 6 Xposition Yposition Zposition Zrotation Yrotation Xrotation
	JOINT Spine
	{
		OFFSET 0.00000 0.00000 3.80709
		CHANNELS 3 Zrotation Yrotation Xrotation
		JOINT Spine1
		{
			OFFSET 0.00000 -0.66110 3.74925
			CHANNELS 3 Zrotation Yrotation Xrotation
			JOINT Spine2
			{
				OFFSET 0.00000 -0.33181 3.79261
				CHANNELS 3 Zrotation Yrotation Xrotation
				JOINT Spine3
				{
					OFFSET 0.00000 -0.00000 3.80709
					CHANNELS 3 Zrotation Yrotation Xrotation
					JOINT Neck
					{
						OFFSET 0.00000 0.48948 4.89483
						CHANNELS 3 Zrotation Yrotation Xrotation
						JOINT Neck1
						{
							OFFSET 0.00000 0.18562 2.12173
							CHANNELS 3 Zrotation Yrotation Xrotation
							JOINT Head
							{
								OFFSET 0.00000 0.36984 2.09748
								CHANNELS 3 Zrotation Yrotation Xrotation
								End Site
								{
									OFFSET 0.00000 -0.00001 3.59976
								}
							}
						}
					}
					JOINT RightShoulder
					{
						OFFSET 0.00000 -0.00000 3.42638
						CHANNELS 3 Yrotation Zrotation Xrotation
						JOINT RightArm
						{
							OFFSET 6.20556 -0.00000 0.00000
							CHANNELS 3 Zrotation Yrotation Xrotation
							JOINT RightForeArm
							{
								OFFSET 11.98982 -0.00000 0.00000
								CHANNELS 3 Zrotation Yrotation Xrotation
								JOINT RightHand
								{
									OFFSET 8.94491 -0.00000 0.00000
									CHANNELS 3 Yrotation Zrotation Xrotation
									JOINT RightHandMiddle1
									{
										OFFSET 3.86714 -0.00000 0.00000
										CHANNELS 3 Yrotation Zrotation Xrotation
										JOINT RightHandMiddle2
										{
											OFFSET 2.06409 -0.00000 0.00000
											CHANNELS 3 Xrotation Yrotation Zrotation
											JOINT RightHandMiddle3
											{
												OFFSET 1.29302 -0.00000 0.00000
												CHANNELS 3 Xrotation Yrotation Zrotation
												End Site
												{
													OFFSET 0.82729 -0.00000 0.00000
												}
											}
										}
									}
									JOINT RightHandRing
									{
										OFFSET 0.09915 -0.17954 -0.09915
										CHANNELS 3 Zrotation Yrotation Xrotation
										JOINT RightHandRing1
										{
											OFFSET 3.43702 -0.31017 0.00000
											CHANNELS 3 Yrotation Zrotation Xrotation
											JOINT RightHandRing2
											{
												OFFSET 1.93316 -0.17446 0.00000
												CHANNELS 3 Xrotation Yrotation Zrotation
												JOINT RightHandRing3
												{
													OFFSET 1.28980 -0.11640 0.00000
													CHANNELS 3 Xrotation Yrotation Zrotation
													End Site
													{
														OFFSET 0.81920 -0.07393 0.00000
													}
												}
											}
										}
										JOINT RightHandPinky
										{
											OFFSET 0.08261 -0.18773 -0.09915
											CHANNELS 3 Zrotation Yrotation Xrotation
											JOINT RightHandPinky1
											{
												OFFSET 2.91281 -0.65136 0.00000
												CHANNELS 3 Yrotation Zrotation Xrotation
												JOINT RightHandPinky2
												{
													OFFSET 1.51743 -0.33933 0.00000
													CHANNELS 3 Xrotation Yrotation Zrotation
													JOINT RightHandPinky3
													{
														OFFSET 0.99864 -0.22332 0.00000
														CHANNELS 3 Xrotation Yrotation Zrotation
														End Site
														{
															OFFSET 0.74053 -0.16560 0.00000
														}
													}
												}
											}
										}
									}
									JOINT RightHandIndex
									{
										OFFSET 0.09915 0.17954 -0.09915
										CHANNELS 3 Zrotation Yrotation Xrotation
										JOINT RightHandIndex1
										{
											OFFSET 3.76758 0.34000 0.00000
											CHANNELS 3 Yrotation Zrotation Xrotation
											JOINT RightHandIndex2
											{
												OFFSET 1.98813 0.17942 0.00000
												CHANNELS 3 Xrotation Yrotation Zrotation
												JOINT RightHandIndex3
												{
													OFFSET 1.19521 0.10786 0.00000
													CHANNELS 3 Xrotation Yrotation Zrotation
													End Site
													{
														OFFSET 0.74912 0.06760 0.00000
													}
												}
											}
										}
										JOINT RightHandThumb1
										{
											OFFSET 0.08261 0.18773 -0.29744
											CHANNELS 3 Zrotation Yrotation Xrotation
											JOINT RightHandThumb2
											{
												OFFSET 2.45633 0.90164 0.00000
												CHANNELS 3 Yrotation Zrotation Xrotation
												JOINT RightHandThumb3
												{
													OFFSET 1.53922 0.56500 0.00000
													CHANNELS 3 Xrotation Yrotation Zrotation
													End Site
													{
														OFFSET 0.96720 0.35503 0.00000
													}
												}
											}
										}
									}
								}
							}
						}
					}
					JOINT LeftShoulder
					{
						OFFSET 0.00000 -0.00000 3.42638
						CHANNELS 3 Yrotation Zrotation Xrotation
						JOINT LeftArm
						{
							OFFSET -6.20556 -0.00000 0.00000
							CHANNELS 3 Zrotation Yrotation Xrotation
							JOINT LeftForeArm
							{
								OFFSET -11.98982 -0.00000 0.00000
								CHANNELS 3 Zrotation Yrotation Xrotation
								JOINT LeftHand
								{
									OFFSET -8.94491 -0.00000 0.00000
									CHANNELS 3 Yrotation Zrotation Xrotation
									JOINT LeftHandMiddle1
									{
										OFFSET -3.53137 -0.00000 0.00000
										CHANNELS 3 Yrotation Zrotation Xrotation
										JOINT LeftHandMiddle2
										{
											OFFSET -1.89421 -0.00000 0.00000
											CHANNELS 3 Xrotation Yrotation Zrotation
											JOINT LeftHandMiddle3
											{
												OFFSET -1.18243 -0.00000 0.00000
												CHANNELS 3 Xrotation Yrotation Zrotation
												End Site
												{
													OFFSET -0.75907 -0.00000 0.00000
												}
											}
										}
									}
									JOINT LeftHandRing
									{
										OFFSET -0.09915 -0.15386 -0.09915
										CHANNELS 3 Zrotation Yrotation Xrotation
										JOINT LeftHandRing1
										{
											OFFSET -3.14442 -0.28376 0.00000
											CHANNELS 3 Yrotation Zrotation Xrotation
											JOINT LeftHandRing2
											{
												OFFSET -1.77265 -0.15997 0.00000
												CHANNELS 3 Xrotation Yrotation Zrotation
												JOINT LeftHandRing3
												{
													OFFSET -1.18194 -0.10666 0.00000
													CHANNELS 3 Xrotation Yrotation Zrotation
													End Site
													{
														OFFSET -0.75165 -0.06783 0.00000
													}
												}
											}
										}
										JOINT LeftHandPinky
										{
											OFFSET -0.08492 -0.16214 -0.09915
											CHANNELS 3 Zrotation Yrotation Xrotation
											JOINT LeftHandPinky1
											{
												OFFSET -2.66923 -0.59689 0.00000
												CHANNELS 3 Yrotation Zrotation Xrotation
												JOINT LeftHandPinky2
												{
													OFFSET -1.39260 -0.31141 0.00000
													CHANNELS 3 Xrotation Yrotation Zrotation
													JOINT LeftHandPinky3
													{
														OFFSET -0.91801 -0.20529 0.00000
														CHANNELS 3 Xrotation Yrotation Zrotation
														End Site
														{
															OFFSET -0.67947 -0.15194 0.00000
														}
													}
												}
											}
										}
									}
									JOINT LeftHandIndex
									{
										OFFSET -0.09915 0.15386 -0.09915
										CHANNELS 3 Zrotation Yrotation Xrotation
										JOINT LeftHandIndex1
										{
											OFFSET -3.44268 0.31068 0.00000
											CHANNELS 3 Yrotation Zrotation Xrotation
											JOINT LeftHandIndex2
											{
												OFFSET -1.82607 0.16479 0.00000
												CHANNELS 3 Xrotation Yrotation Zrotation
												JOINT LeftHandIndex3
												{
													OFFSET -1.09509 0.09883 0.00000
													CHANNELS 3 Xrotation Yrotation Zrotation
													End Site
													{
														OFFSET -0.68735 0.06203 0.00000
													}
												}
											}
										}
										JOINT LeftHandThumb1
										{
											OFFSET -0.08492 0.16214 -0.29744
											CHANNELS 3 Zrotation Yrotation Xrotation
											JOINT LeftHandThumb2
											{
												OFFSET -2.24995 0.82589 0.00000
												CHANNELS 3 Yrotation Zrotation Xrotation
												JOINT LeftHandThumb3
												{
													OFFSET -1.41110 0.51797 0.00000
													CHANNELS 3 Xrotation Yrotation Zrotation
													End Site
													{
														OFFSET -0.88745 0.32575 0.00000
													}
												}
											}
										}
									}
								}
							}
						}
					}
				}
			}
		}
	}
	JOINT RightUpLeg
	{
		OFFSET 4.10948 0.00000 0.00000
		CHANNELS 3 Zrotation Yrotation Xrotation
		JOINT RightLeg
		{
			OFFSET 0.00000 0.00000 -16.03257
			CHANNELS 3 Xrotation Yrotation Zrotation
			JOINT RightFoot
			{
				OFFSET 0.00000 0.00000 -15.81429
				CHANNELS 3 Zrotation Yrotation Xrotation
				JOINT RightToeBase
				{
					OFFSET 0.00000 5.17902 -1.32242
					CHANNELS 3 Xrotation Yrotation Zrotation
					End Site
					{
						OFFSET 0.00000 2.39290 0.00000
					}
				}
			}
		}
	}
	JOINT LeftUpLeg
	{
		OFFSET -4.10948 0.00000 0.00000
		CHANNELS 3 Zrotation Yrotation Xrotation
		JOINT LeftLeg
		{
			OFFSET 0.00000 0.00000 -16.03257
			CHANNELS 3 Xrotation Yrotation Zrotation
			JOINT LeftFoot
			{
				OFFSET 0.00000 0.00000 -15.81429
				CHANNELS 3 Zrotation Yrotation Xrotation
				JOINT LeftToeBase
				{
					OFFSET 0.00000 5.17902 -1.32242
					CHANNELS 3 Xrotation Yrotation Zrotation
					End Site
					{
						OFFSET 0.00000 2.09643 0.00000
					}
				}
			}
		}
	}
}
MOTION
Frames: 4
Frame Time: 0.008333
 2.4468 34.8125 -107.8867 -178.6729 1.6428 105.8628 -0.1427 -0.2785 -6.6008 -0.1179 -0.2899 -6.6008 -0.1014 0.4195 2.1806 -0.1014 0.4195 2.1806 4.0293 -0.7634 -18.7213 4.2429 -1.6734 -7.2973 3.4375 -4.1013 8.4021 -13.9234 5.3609 1.3269 6.8226 6.9182 2.1263 8.5726 -0.0000 6.1506 8.4161 -8.1455 1.2009 2.1460 -31.3517 1.1169 -0.0000 -14.6337 -0.0000 -0.0000 -9.9405 -0.0000 -3.0785 1.3204 9.0123 2.1468 -19.9497 0.9150 -0.8914 -9.7807 -0.0763 -1.1498 -12.5358 -0.1263 -3.1871 0.8801 6.4766 4.2098 5.3233 0.5478 -2.8045 -12.3419 -0.3033 -0.7235 -3.2319 -0.0204 5.8747 -0.4952 3.0960 8.5797 -42.5465 5.2534 0.5516 -6.0895 0.0293 0.0656 -0.7268 0.0004 6.7205 9.9958 -38.1579 6.1229 -4.9636 -1.9456 0.6277 -1.6634 1.0357 13.3024 1.0441 -0.2469 -4.2318 -9.2566 6.6140 -4.6637 0.0000 5.0208 -13.9236 12.0186 2.9551 14.8661 24.8641 -6.3685 -0.0000 -29.0536 -0.0000 -0.0000 -13.8450 -0.0000 2.2826 0.7357 11.4543 10.9104 11.4216 -3.1623 2.9190 -29.4360 0.7669 1.2725 -13.8248 0.1543 2.3798 0.1593 5.1755 13.9475 -1.5393 -2.8002 5.0434 -21.4612 0.9563 3.8679 -16.7861 0.5709 -6.5654 -1.3764 1.7312 16.9567 33.3134 -8.2070 -2.9721 -29.8793 -0.7932 -0.6399 -7.0553 -0.0395 -4.8454 -11.8376 -37.5623 1.5848 -2.4747 0.6437 -3.7272 -12.4679 7.1388 0.9760 -6.4997 -21.0994 -2.8819 0.0000 -0.0000 -6.7250 9.0320 7.1656 -1.1707 -0.0000 0.0000 2.8815 4.4380 -18.7994 -4.8434 0.0000 0.0000 4.3739 0.9160 5.0022 1.8004 -0.0000 0.0000
 2.4474 34.8127 -107.8886 -178.6737 1.6364 105.8741 -0.1466 -0.2690 -6.6129 -0.1226 -0.2808 -6.6130 -0.1067 0.3987 2.1876 -0.1067 0.3987 2.1876 4.0150 -0.7239 -18.7355 4.2356 -1.6617 -7.2930 3.4303 -4.1273 8.4323 -13.9108 5.3915 1.3331 6.8202 6.9397 2.1035 8.5567 -0.0000 6.1911 8.4279 -8.1502 1.2033 2.1485 -31.3375 1.1178 -0.0000 -14.7116 -0.0000 -0.0000 -9.9884 -0.0000 -3.0754 1.3223 9.0150 2.1483 -19.9320 0.9150 -0.9008 -9.8827 -0.0779 -1.1546 -12.5867 -0.1273 -3.1793 0.8831 6.4842 4.2292 5.3274 0.5500 -2.8270 -12.4375 -0.3081 -0.7347 -3.2818 -0.0211 5.8748 -0.4950 3.1090 8.6010 -42.5269 5.2641 0.5559 -6.1367 0.0298 0.0694 -0.7693 0.0005 6.7025 9.9881 -38.1737 6.1199 -4.9763 -1.9430 0.6292 -1.6672 1.0381 13.3231 1.0658 -0.2524 -4.2754 -9.2456 6.5980 -4.6414 0.0000 5.0562 -13.9224 12.0006 2.9505 14.8611 24.8513 -6.3632 -0.0000 -29.0834 -0.0000 -0.0000 -13.8638 -0.0000 2.2794 0.7362 11.4503 10.8994 11.4157 -3.1579 2.9237 -29.4754 0.7692 1.2743 -13.8439 0.1547 2.3716 0.1560 5.1718 13.9392 -1.5324 -2.8002 5.0521 -21.4947 0.9595 3.8753 -16.8165 0.5730 -6.5603 -1.3785 1.7321 16.9485 33.2870 -8.1959 -2.9775 -29.9241 -0.7959 -0.6395 -7.0500 -0.0394 -4.8255 -11.8210 -37.5624 1.6035 -2.4107 0.6484 -3.7216 -12.4443 7.1260 1.0401 -6.4726 -21.1426 -2.8286 0.0000 -0.0000 -6.8054 9.0216 7.1366 -1.1480 0.0000 0.0000 2.8699 4.4341 -18.8021 -4.8513 -0.0000 -0.0000 4.3877 0.9312 5.0017 1.8196 -0.0000 -0.0000
 2.4479 34.8130 -107.8912 -178.6722 1.6388 105.8768 -0.1441 -0.2653 -6.6174 -0.1204 -0.2768 -6.6174 -0.1048 0.3920 2.1920 -0.1048 0.3920 2.1920 4.0017 -0.7178 -18.7514 4.2225 -1.6576 -7.2908 3.4180 -4.1224 8.4594 -13.9233 5.4134 1.3398 6.8041 6.9713 2.0926 8.5533 -0.0000 6.2326 8.4241 -8.1479 1.2024 2.1538 -31.3241 1.1201 -0.0000 -14.7203 -0.0000 -0.0000 -9.9997 -0.0000 -3.0761 1.3225 9.0132 2.1469 -19.9286 0.9143 -0.9022 -9.8970 -0.0781 -1.1550 -12.5906 -0.1274 -3.1777 0.8840 6.4832 4.2286 5.3256 0.5501 -2.8299 -12.4502 -0.3088 -0.7371 -3.2924 -0.0212 5.8732 -0.4946 3.1061 8.5964 -42.5137 5.2597 0.5566 -6.1440 0.0299 0.0701 -0.7771 0.0005 6.7086 9.9920 -38.1717 6.1171 -4.9456 -1.9456 0.6344 -1.6805 1.0464 13.3307 1.0505 -0.2489 -4.2878 -9.2417 6.5884 -4.6288 0.0000 5.0732 -13.9285 11.9746 2.9456 14.8602 24.8565 -6.3641 -0.0000 -29.1400 -0.0000 -0.0000 -13.8884 -0.0000 2.2786 0.7388 11.4434 10.8991 11.4100 -3.1568 2.9302 -29.5299 0.7724 1.2777 -13.8794 0.1555 2.3750 0.1553 5.1700 13.9237 -1.5385 -2.7954 5.0659 -21.5477 0.9646 3.8808 -16.8390 0.5746 -6.5556 -1.3753 1.7134 16.9164 33.2809 -8.1781 -2.9827 -29.9678 -0.7985 -0.6435 -7.0935 -0.0399 -4.8508 -11.8226 -37.5541 1.5702 -2.4511 0.6372 -3.7258 -12.4617 7.1354 1.0171 -6.4853 -21.1206 -2.8675 0.0000 -0.0000 -6.7556 9.0639 7.1707 -1.2209 0.0000 0.0000 2.8745 4.4337 -18.7976 -4.8581 -0.0000 -0.0000 4.3905 0.9382 5.0034 1.8951 -0.0000 -0.0000
 2.4487 34.8132 -107.8943 -178.6712 1.6362 105.8694 -0.1451 -0.2597 -6.6191 -0.1219 -0.2714 -6.6192 -0.1066 0.3802 2.1999 -0.1066 0.3802 2.1999 3.9980 -0.7087 -18.7587 4.2197 -1.6516 -7.2899 3.4164 -4.1201 8.4717 -13.9179 5.4277 1.3428 6.8127 6.9844 2.0941 8.5418 -0.0000 6.2624 8.4649 -8.1459 1.2081 2.1613 -31.2729 1.1223 -0.0000 -14.7022 -0.0000 -0.0000 -9.9902 -0.0000 -3.0755 1.3238 9.0248 2.1547 -19.8959 0.9165 -0.9006 -9.8805 -0.0779 -1.1539 -12.5798 -0.1272 -3.1705 0.8839 6.4887 4.2623 5.3317 0.5540 -2.8277 -12.4408 -0.3083 -0.7384 -3.2981 -0.0213 5.8738 -0.4976 3.1071 8.5827 -42.4487 5.2435 0.5561 -6.1382 0.0298 0.0705 -0.7808 0.0005 6.7233 9.9965 -38.1658 6.1075 -4.9200 -1.9452 0.6361 -1.6851 1.0493 13.3460 1.0460 -0.2481 -4.3005 -9.2370 6.5798 -4.6188 0.0000 5.0836 -13.9344 11.9412 2.9388 14.8585 24.8560 -6.3632 -0.0000 -29.1763 -0.0000 -0.0000 -13.9048 -0.0000 2.2806 0.7411 11.4395 10.9066 11.4076 -3.1585 2.9352 -29.5715 0.7749 1.2798 -13.9015 0.1560 2.3855 0.1575 5.1677 13.9129 -1.5374 -2.7935 5.0774 -21.5922 0.9688 3.8831 -16.8483 0.5753 -6.5549 -1.3722 1.6944 16.8841 33.2607 -8.1565 -2.9851 -29.9872 -0.7997 -0.6479 -7.1425 -0.0404 -4.8819 -11.8414 -37.5541 1.5214 -2.5208 0.6212 -3.7315 -12.4861 7.1486 1.0016 -6.4934 -21.0986 -2.8812 0.0000 0.0000 -6.7508 9.0452 7.1615 -1.1911 0.0000 0.0000 2.8762 4.4315 -18.7838 -4.8604 -0.0000 -0.0000 4.3823 0.9290 4.9987 1.8725 0.0000 0.0000
